<svg width="202" height="134" viewBox="0 0 202 134" fill="none" xmlns="http://www.w3.org/2000/svg">
<path d="M21.8183 88.3663C21.8183 96.0698 23.5106 101.983 25.724 105.561C28.6254 110.248 32.9525 112.237 37.3643 112.237C43.0536 112.237 48.259 110.827 58.2899 96.9706C66.3281 85.865 75.7955 70.2763 82.1668 60.5032L92.9567 43.9461C100.452 32.4475 109.127 19.6652 119.074 11.0009C127.197 3.92865 135.954 0 144.77 0C159.572 0 173.67 8.5663 184.46 24.6324C196.268 42.2273 202 64.3905 202 87.261C202 100.858 199.317 110.848 194.75 118.741C190.339 126.373 181.741 134 167.277 134V112.234C179.662 112.234 182.752 100.868 182.752 87.861C182.752 69.3256 178.425 48.7562 168.893 34.0582C162.129 23.6327 153.362 17.2627 143.717 17.2627C133.285 17.2627 124.89 25.1217 115.456 39.1302C110.44 46.5742 105.292 55.645 99.51 65.8812L93.1454 77.1415C80.3621 99.7847 77.1231 104.939 70.7305 113.447C59.5269 128.347 49.9589 133.997 37.3643 133.997C22.4224 133.997 12.9746 127.535 7.12272 117.797C2.34632 109.863 0 99.4509 0 87.588L21.8183 88.3663Z" fill="#0081FB"/>
<path d="M17 26.1686C27.014 10.7693 41.4657 0 58.041 0C67.6399 0 77.1846 2.83429 87.1477 10.9518C98.0477 19.8248 109.665 34.4441 124.159 58.528L129.356 67.1686C141.902 88.0193 149.039 98.7463 153.217 103.805C158.589 110.301 162.352 112.237 167.239 112.237C179.638 112.237 182.731 100.872 182.731 87.8646L202 87.2613C202 100.858 199.314 110.848 194.742 118.741C190.327 126.373 181.719 134 167.239 134C158.237 134 150.263 132.05 141.444 123.75C134.668 117.38 126.739 106.064 120.642 95.8909L102.506 65.6678C93.4067 50.5 85.0563 39.1908 80.2281 34.0689C75.0305 28.5609 68.3497 21.9104 57.6886 21.9104C49.0604 21.9104 41.7325 27.9508 35.6006 37.1905L17 26.1686Z" fill="url(#paint0_linear_120_4170)"/>
<path d="M57.6492 21.9477C49.0601 21.9477 41.7653 27.9983 35.6611 37.2538C27.0289 50.332 21.7478 69.8121 21.7478 88.5195C21.7478 96.236 23.4343 102.16 25.6401 105.744L7.09832 118C2.33828 110.052 0 99.6228 0 87.7399C0 66.1299 5.90852 43.6067 17.1446 26.2131C27.1133 10.7876 41.4996 0 58 0L57.6492 21.9477Z" fill="url(#paint1_linear_120_4170)"/>
<defs>
<linearGradient id="paint0_linear_120_4170" x1="43.6147" y1="63.5273" x2="182.853" y2="70.5763" gradientUnits="userSpaceOnUse">
<stop stop-color="#0064E1"/>
<stop offset="0.4" stop-color="#0064E1"/>
<stop offset="0.83" stop-color="#0073EE"/>
<stop offset="1" stop-color="#0082FB"/>
</linearGradient>
<linearGradient id="paint1_linear_120_4170" x1="28.9996" y1="97.6835" x2="28.9996" y2="46.3823" gradientUnits="userSpaceOnUse">
<stop stop-color="#0082FB"/>
<stop offset="1" stop-color="#0064E0"/>
</linearGradient>
</defs>
</svg>
