<svg width="33" height="33" viewBox="0 0 33 33" fill="none" xmlns="http://www.w3.org/2000/svg">
<path d="M30.2087 25.2037C30.2087 25.6987 30.0987 26.2075 29.865 26.7025C29.6312 27.1975 29.3288 27.665 28.93 28.105C28.2563 28.8475 27.5137 29.3838 26.675 29.7275C25.85 30.0713 24.9563 30.25 23.9938 30.25C22.5913 30.25 21.0925 29.92 19.5112 29.2463C17.93 28.5725 16.3487 27.665 14.7812 26.5238C13.2 25.3688 11.7012 24.09 10.2712 22.6737C8.855 21.2437 7.57625 19.745 6.435 18.1775C5.3075 16.61 4.4 15.0425 3.74 13.4888C3.08 11.9213 2.75 10.4225 2.75 8.9925C2.75 8.0575 2.915 7.16375 3.245 6.33875C3.575 5.5 4.0975 4.73 4.82625 4.0425C5.70625 3.17625 6.66875 2.75 7.68625 2.75C8.07125 2.75 8.45625 2.8325 8.8 2.9975C9.1575 3.1625 9.47375 3.41 9.72125 3.7675L12.9113 8.26375C13.1588 8.6075 13.3375 8.92375 13.4612 9.22625C13.585 9.515 13.6538 9.80375 13.6538 10.065C13.6538 10.395 13.5575 10.725 13.365 11.0412C13.1863 11.3575 12.925 11.6875 12.595 12.0175L11.55 13.1037C11.3987 13.255 11.33 13.4338 11.33 13.6538C11.33 13.7638 11.3438 13.86 11.3713 13.97C11.4125 14.08 11.4538 14.1625 11.4813 14.245C11.7288 14.6987 12.155 15.29 12.76 16.005C13.3787 16.72 14.0387 17.4488 14.7537 18.1775C15.4962 18.9063 16.2112 19.58 16.94 20.1987C17.655 20.8037 18.2462 21.2162 18.7137 21.4637C18.7825 21.4912 18.865 21.5325 18.9612 21.5737C19.0712 21.615 19.1812 21.6287 19.305 21.6287C19.5387 21.6287 19.7175 21.5463 19.8687 21.395L20.9138 20.3638C21.2575 20.02 21.5875 19.7587 21.9038 19.5938C22.22 19.4012 22.5362 19.305 22.88 19.305C23.1412 19.305 23.4163 19.36 23.7188 19.4838C24.0212 19.6075 24.3375 19.7863 24.6813 20.02L29.2325 23.2512C29.59 23.4987 29.8375 23.7875 29.9887 24.1312C30.1262 24.475 30.2087 24.8187 30.2087 25.2037Z" stroke="black" stroke-width="2.5" stroke-miterlimit="10"/>
<path d="M25.4375 12.375C25.4375 11.55 24.7912 10.285 23.8287 9.25375C22.9487 8.305 21.78 7.5625 20.625 7.5625" stroke="black" stroke-width="2.5" stroke-linecap="round" stroke-linejoin="round"/>
<path d="M30.25 12.375C30.25 7.05375 25.9462 2.75 20.625 2.75" stroke="black" stroke-width="2.5" stroke-linecap="round" stroke-linejoin="round"/>
</svg>
